<svg xmlns="http://www.w3.org/2000/svg" xmlns:xlink="http://www.w3.org/1999/xlink" contentStyleType="text/css" data-diagram-type="ACTIVITY" height="2298px" preserveAspectRatio="none" style="width:427px;height:2298px;background:#F8FAFC;" version="1.1" viewBox="0 0 427 2298" width="427px" zoomAndPan="magnify"><?plantuml 1.2026.3?><defs/><g><rect fill="#F8FAFC" height="2298" style="stroke:none;stroke-width:1;" width="427" x="0" y="0"/><g class="title" data-source-line="29"><text fill="#000000" font-family="sans-serif" font-size="18" font-weight="700" lengthAdjust="spacing" textLength="161.999" x="131.8807" y="36.708">&#33647;&#25151;&#26234;&#33021;&#20307;&#19994;&#21153;&#38381;&#29615;</text><text fill="#000000" font-family="sans-serif" font-size="12" font-weight="700" lengthAdjust="spacing" textLength="168.9034" x="128.4285" y="52.0918">&#24863;&#30693;-&#27934;&#23519;-&#20915;&#31574;-&#35302;&#36798;-&#23653;&#32422;-&#22797;&#30424;</text></g><rect fill="#FFFFCC" height="16.6406" rx="2.5" ry="2.5" style="stroke:#FFDD88;stroke-width:3;" width="396.7605" x="13" y="68.9219"/><text fill="#000000" font-family="monospace" font-size="10" lengthAdjust="spacing" textLength="355.21" x="20" y="79.5625">Please&#160;use&#160;'!option&#160;handwritten&#160;true'&#160;to&#160;enable&#160;handwritten</text><rect fill="#E0F2FE" height="237.1719" style="stroke:#000000;stroke-width:1.5;" width="133.3736" x="110.0732" y="93.5625"/><path d="M233.4468,93.5625 L233.4468,102.8594 L223.4468,112.8594 L110.0732,112.8594" fill="none" style="stroke:#000000;stroke-width:1.5;"/><text fill="#000000" font-family="sans-serif" font-size="14" lengthAdjust="spacing" textLength="113.3736" x="113.0732" y="107.5576">&#24863;&#30693;&#23618; (&#22806;&#37096;&#20449;&#21495;)</text><rect fill="#E0F2FE" height="33.9688" rx="12.5" ry="12.5" style="stroke:#0284C7;stroke-width:0.5;" width="68.0004" x="142.7599" y="122.8594"/><text fill="#0C4A6E" font-family="sans-serif" font-size="12" lengthAdjust="spacing" textLength="48.0004" x="152.7599" y="143.998">&#23395;&#33410;&#21464;&#21270;</text><rect fill="#E0F2FE" height="33.9688" rx="12.5" ry="12.5" style="stroke:#0284C7;stroke-width:0.5;" width="68.0004" x="142.7599" y="176.8281"/><text fill="#0C4A6E" font-family="sans-serif" font-size="12" lengthAdjust="spacing" textLength="48.0004" x="152.7599" y="197.9668">&#22825;&#27668;&#31361;&#21464;</text><rect fill="#E0F2FE" height="33.9688" rx="12.5" ry="12.5" style="stroke:#0284C7;stroke-width:0.5;" width="68.0004" x="142.7599" y="230.7969"/><text fill="#0C4A6E" font-family="sans-serif" font-size="12" lengthAdjust="spacing" textLength="48.0004" x="152.7599" y="251.9355">&#33286;&#24773;&#28909;&#28857;</text><rect fill="#E0F2FE" height="33.9688" rx="12.5" ry="12.5" style="stroke:#0284C7;stroke-width:0.5;" width="68.0004" x="142.7599" y="284.7656"/><text fill="#0C4A6E" font-family="sans-serif" font-size="12" lengthAdjust="spacing" textLength="48.0004" x="152.7599" y="305.9043">&#22320;&#29702;&#20301;&#32622;</text><rect fill="#DBEAFE" height="244.1719" style="stroke:#000000;stroke-width:1.5;" width="133.3736" x="110.0732" y="341.5361"/><path d="M233.4468,341.5361 L233.4468,350.833 L223.4468,360.833 L110.0732,360.833" fill="none" style="stroke:#000000;stroke-width:1.5;"/><text fill="#000000" font-family="sans-serif" font-size="14" lengthAdjust="spacing" textLength="113.3736" x="113.0732" y="355.5313">&#27934;&#23519;&#23618; (&#26234;&#33021;&#21305;&#37197;)</text><rect fill="#E0F2FE" height="33.9688" rx="12.5" ry="12.5" style="stroke:#0284C7;stroke-width:0.5;" width="92.0005" x="130.7598" y="377.833"/><text fill="#0C4A6E" font-family="sans-serif" font-size="12" lengthAdjust="spacing" textLength="72.0005" x="140.7598" y="398.9717">&#20250;&#21592;&#30011;&#20687;&#20998;&#26512;</text><rect fill="#E0F2FE" height="33.9688" rx="12.5" ry="12.5" style="stroke:#0284C7;stroke-width:0.5;" width="92.0005" x="130.7598" y="431.8018"/><text fill="#0C4A6E" font-family="sans-serif" font-size="12" lengthAdjust="spacing" textLength="72.0005" x="140.7598" y="452.9404">&#29992;&#33647;&#21608;&#26399;&#35745;&#31639;</text><rect fill="#E0F2FE" height="33.9688" rx="12.5" ry="12.5" style="stroke:#0284C7;stroke-width:0.5;" width="92.0005" x="130.7598" y="485.7705"/><text fill="#0C4A6E" font-family="sans-serif" font-size="12" lengthAdjust="spacing" textLength="72.0005" x="140.7598" y="506.9092">&#33647;&#21697;&#26631;&#31614;&#21305;&#37197;</text><rect fill="#E0F2FE" height="33.9688" rx="12.5" ry="12.5" style="stroke:#0284C7;stroke-width:0.5;" width="92.0005" x="130.7598" y="539.7393"/><text fill="#0C4A6E" font-family="sans-serif" font-size="12" lengthAdjust="spacing" textLength="72.0005" x="140.7598" y="560.8779">&#20851;&#32852;&#25512;&#33616;&#35745;&#31639;</text><rect fill="#FCE7F3" height="244.1719" style="stroke:#000000;stroke-width:1.5;" width="119.3737" x="117.0732" y="596.5098"/><path d="M226.4469,596.5098 L226.4469,605.8066 L216.4469,615.8066 L117.0732,615.8066" fill="none" style="stroke:#000000;stroke-width:1.5;"/><text fill="#000000" font-family="sans-serif" font-size="14" lengthAdjust="spacing" textLength="99.3737" x="120.0732" y="610.5049">&#20915;&#31574;&#23618; (&#26234;&#33021;&#20307;)</text><rect fill="#E0F2FE" height="33.9688" rx="12.5" ry="12.5" style="stroke:#0284C7;stroke-width:0.5;" width="92.0005" x="130.7598" y="632.8066"/><text fill="#0C4A6E" font-family="sans-serif" font-size="12" lengthAdjust="spacing" textLength="72.0005" x="140.7598" y="653.9453">&#31574;&#30053;&#35268;&#21017;&#24341;&#25806;</text><rect fill="#E0F2FE" height="33.9688" rx="12.5" ry="12.5" style="stroke:#0284C7;stroke-width:0.5;" width="92.0005" x="130.7598" y="686.7754"/><text fill="#0C4A6E" font-family="sans-serif" font-size="12" lengthAdjust="spacing" textLength="72.0005" x="140.7598" y="707.9141">&#21048;&#21253;&#33258;&#21160;&#29983;&#25104;</text><rect fill="#E0F2FE" height="33.9688" rx="12.5" ry="12.5" style="stroke:#0284C7;stroke-width:0.5;" width="68.0004" x="142.7599" y="740.7441"/><text fill="#0C4A6E" font-family="sans-serif" font-size="12" lengthAdjust="spacing" textLength="48.0004" x="152.7599" y="761.8828">&#26102;&#26426;&#21028;&#23450;</text><rect fill="#E0F2FE" height="33.9688" rx="12.5" ry="12.5" style="stroke:#0284C7;stroke-width:0.5;" width="68.0004" x="142.7599" y="794.7129"/><text fill="#0C4A6E" font-family="sans-serif" font-size="12" lengthAdjust="spacing" textLength="48.0004" x="152.7599" y="815.8516">&#28192;&#36947;&#36873;&#25321;</text><rect fill="#FEF3C7" height="244.1719" style="stroke:#000000;stroke-width:1.5;" width="119.3737" x="117.0732" y="851.4834"/><path d="M226.4469,851.4834 L226.4469,860.7803 L216.4469,870.7803 L117.0732,870.7803" fill="none" style="stroke:#000000;stroke-width:1.5;"/><text fill="#000000" font-family="sans-serif" font-size="14" lengthAdjust="spacing" textLength="99.3737" x="120.0732" y="865.4785">&#35302;&#36798;&#23618; (&#22810;&#28192;&#36947;)</text><rect fill="#E0F2FE" height="33.9688" rx="12.5" ry="12.5" style="stroke:#0284C7;stroke-width:0.5;" width="68.0004" x="142.7599" y="887.7803"/><text fill="#0C4A6E" font-family="sans-serif" font-size="12" lengthAdjust="spacing" textLength="48.0004" x="152.7599" y="908.9189">&#20225;&#19994;&#24494;&#20449;</text><rect fill="#E0F2FE" height="33.9688" rx="12.5" ry="12.5" style="stroke:#0284C7;stroke-width:0.5;" width="68.0004" x="142.7599" y="941.749"/><text fill="#0C4A6E" font-family="sans-serif" font-size="12" lengthAdjust="spacing" textLength="48.0004" x="152.7599" y="962.8877">&#30701;&#20449;&#36890;&#30693;</text><rect fill="#E0F2FE" height="33.9688" rx="12.5" ry="12.5" style="stroke:#0284C7;stroke-width:0.5;" width="80.0005" x="136.7598" y="995.7178"/><text fill="#0C4A6E" font-family="sans-serif" font-size="12" lengthAdjust="spacing" textLength="60.0005" x="146.7598" y="1016.8564">&#23567;&#31243;&#24207;&#25512;&#36865;</text><rect fill="#E0F2FE" height="33.9688" rx="12.5" ry="12.5" style="stroke:#0284C7;stroke-width:0.5;" width="66.6818" x="143.4191" y="1049.6865"/><text fill="#0C4A6E" font-family="sans-serif" font-size="12" lengthAdjust="spacing" textLength="46.6818" x="153.4191" y="1070.8252">APP&#28040;&#24687;</text><rect fill="#DCFCE7" height="244.1719" style="stroke:#000000;stroke-width:1.5;" width="105.3737" x="124.0732" y="1106.457"/><path d="M219.4469,1106.457 L219.4469,1115.7539 L209.4469,1125.7539 L124.0732,1125.7539" fill="none" style="stroke:#000000;stroke-width:1.5;"/><text fill="#000000" font-family="sans-serif" font-size="14" lengthAdjust="spacing" textLength="85.3737" x="127.0732" y="1120.4521">&#23653;&#32422;&#23618; (&#38376;&#24215;)</text><rect fill="#E0F2FE" height="33.9688" rx="12.5" ry="12.5" style="stroke:#0284C7;stroke-width:0.5;" width="68.0004" x="142.7599" y="1142.7539"/><text fill="#0C4A6E" font-family="sans-serif" font-size="12" lengthAdjust="spacing" textLength="48.0004" x="152.7599" y="1163.8926">&#20250;&#21592;&#21040;&#24215;</text><rect fill="#E0F2FE" height="33.9688" rx="12.5" ry="12.5" style="stroke:#0284C7;stroke-width:0.5;" width="68.0004" x="142.7599" y="1196.7227"/><text fill="#0C4A6E" font-family="sans-serif" font-size="12" lengthAdjust="spacing" textLength="48.0004" x="152.7599" y="1217.8613">&#24215;&#21592;&#25215;&#25509;</text><rect fill="#E0F2FE" height="33.9688" rx="12.5" ry="12.5" style="stroke:#0284C7;stroke-width:0.5;" width="68.0004" x="142.7599" y="1250.6914"/><text fill="#0C4A6E" font-family="sans-serif" font-size="12" lengthAdjust="spacing" textLength="48.0004" x="152.7599" y="1271.8301">&#26680;&#38144;&#21048;&#30721;</text><rect fill="#E0F2FE" height="33.9688" rx="12.5" ry="12.5" style="stroke:#0284C7;stroke-width:0.5;" width="68.0004" x="142.7599" y="1304.6602"/><text fill="#0C4A6E" font-family="sans-serif" font-size="12" lengthAdjust="spacing" textLength="48.0004" x="152.7599" y="1325.7988">&#34917;&#36135;&#30830;&#35748;</text><rect fill="#F3E8FF" height="244.1719" style="stroke:#000000;stroke-width:1.5;" width="133.3736" x="110.0732" y="1361.4307"/><path d="M233.4468,1361.4307 L233.4468,1370.7275 L223.4468,1380.7275 L110.0732,1380.7275" fill="none" style="stroke:#000000;stroke-width:1.5;"/><text fill="#000000" font-family="sans-serif" font-size="14" lengthAdjust="spacing" textLength="113.3736" x="113.0732" y="1375.4258">&#22797;&#30424;&#23618; (&#25968;&#25454;&#38381;&#29615;)</text><rect fill="#E0F2FE" height="33.9688" rx="12.5" ry="12.5" style="stroke:#0284C7;stroke-width:0.5;" width="92.0005" x="130.7598" y="1397.7275"/><text fill="#0C4A6E" font-family="sans-serif" font-size="12" lengthAdjust="spacing" textLength="72.0005" x="140.7598" y="1418.8662">&#36716;&#21270;&#25968;&#25454;&#20998;&#26512;</text><rect fill="#E0F2FE" height="33.9688" rx="12.5" ry="12.5" style="stroke:#0284C7;stroke-width:0.5;" width="92.0005" x="130.7598" y="1451.6963"/><text fill="#0C4A6E" font-family="sans-serif" font-size="12" lengthAdjust="spacing" textLength="72.0005" x="140.7598" y="1472.835">&#24211;&#23384;&#28040;&#21270;&#32479;&#35745;</text><rect fill="#E0F2FE" height="33.9688" rx="12.5" ry="12.5" style="stroke:#0284C7;stroke-width:0.5;" width="92.0005" x="130.7598" y="1505.665"/><text fill="#0C4A6E" font-family="sans-serif" font-size="12" lengthAdjust="spacing" textLength="72.0005" x="140.7598" y="1526.8037">&#31574;&#30053;&#25928;&#26524;&#35780;&#20272;</text><rect fill="#E0F2FE" height="33.9688" rx="12.5" ry="12.5" style="stroke:#0284C7;stroke-width:0.5;" width="92.0005" x="130.7598" y="1559.6338"/><text fill="#0C4A6E" font-family="sans-serif" font-size="12" lengthAdjust="spacing" textLength="72.0005" x="140.7598" y="1580.7725">&#35268;&#21017;&#36845;&#20195;&#20248;&#21270;</text><ellipse cx="176.76" cy="1635.6025" fill="#222222" rx="10" ry="10" style="stroke:#222222;stroke-width:1;"/><path d="M242.7603,1670.0205 L242.7603,1678.5869 L222.7603,1682.5869 L242.7603,1686.5869 L242.7603,1695.1533 A0,0 0 0 0 242.7603,1695.1533 L406.7605,1695.1533 A0,0 0 0 0 406.7605,1695.1533 L406.7605,1680.0205 L396.7605,1670.0205 L242.7603,1670.0205 A0,0 0 0 0 242.7603,1670.0205" fill="#FFFBEB" style="stroke:#F59E0B;stroke-width:0.5;"/><path d="M396.7605,1670.0205 L396.7605,1680.0205 L406.7605,1680.0205 L396.7605,1670.0205" fill="#FFFBEB" style="stroke:#F59E0B;stroke-width:0.5;"/><text fill="#92400E" font-family="sans-serif" font-size="13" lengthAdjust="spacing" textLength="143.0002" x="248.7603" y="1687.0874">&#20363;&#65306;&#38477;&#28201;&#39044;&#35686;&#12289;&#27969;&#24863;&#33286;&#24773;</text><rect fill="#E0F2FE" height="33.9688" rx="12.5" ry="12.5" style="stroke:#0284C7;stroke-width:0.5;" width="92.0005" x="130.7598" y="1665.6025"/><text fill="#0C4A6E" font-family="sans-serif" font-size="12" lengthAdjust="spacing" textLength="72.0005" x="140.7598" y="1686.7412">&#22806;&#37096;&#20449;&#21495;&#35302;&#21457;</text><rect fill="#E0F2FE" height="33.9688" rx="12.5" ry="12.5" style="stroke:#0284C7;stroke-width:0.5;" width="80.0005" x="136.7598" y="1719.5713"/><text fill="#0C4A6E" font-family="sans-serif" font-size="12" lengthAdjust="spacing" textLength="60.0005" x="146.7598" y="1740.71">&#24863;&#30693;&#23618;&#25429;&#33719;</text><path d="M236.7603,1794.3604 L236.7603,1810.4932 L216.7603,1814.4932 L236.7603,1818.4932 L236.7603,1834.626 A0,0 0 0 0 236.7603,1834.626 L395.9425,1834.626 A0,0 0 0 0 395.9425,1834.626 L395.9425,1804.3604 L385.9425,1794.3604 L236.7603,1794.3604 A0,0 0 0 0 236.7603,1794.3604" fill="#FFFBEB" style="stroke:#F59E0B;stroke-width:0.5;"/><path d="M385.9425,1794.3604 L385.9425,1804.3604 L395.9425,1804.3604 L385.9425,1794.3604" fill="#FFFBEB" style="stroke:#F59E0B;stroke-width:0.5;"/><text fill="#92400E" font-family="sans-serif" font-size="13" lengthAdjust="spacing" textLength="123.1573" x="242.7603" y="1811.4272">&#20250;&#21592;&#30011;&#20687; + &#33647;&#21697;&#26631;&#31614;</text><text fill="#92400E" font-family="sans-serif" font-size="13" lengthAdjust="spacing" textLength="138.1823" x="242.7603" y="1826.5601">+ &#29992;&#33647;&#21608;&#26399; = &#31934;&#20934;&#21305;&#37197;</text><rect fill="#E0F2FE" height="33.9688" rx="12.5" ry="12.5" style="stroke:#0284C7;stroke-width:0.5;" width="80.0005" x="136.7598" y="1797.5088"/><text fill="#0C4A6E" font-family="sans-serif" font-size="12" lengthAdjust="spacing" textLength="60.0005" x="146.7598" y="1818.6475">&#27934;&#23519;&#23618;&#20998;&#26512;</text><path d="M236.7603,1851.4775 L236.7603,1867.6104 L216.7603,1871.6104 L236.7603,1875.6104 L236.7603,1891.7432 A0,0 0 0 0 236.7603,1891.7432 L373.7194,1891.7432 A0,0 0 0 0 373.7194,1891.7432 L373.7194,1861.4775 L363.7194,1851.4775 L236.7603,1851.4775 A0,0 0 0 0 236.7603,1851.4775" fill="#FFFBEB" style="stroke:#F59E0B;stroke-width:0.5;"/><path d="M363.7194,1851.4775 L363.7194,1861.4775 L373.7194,1861.4775 L363.7194,1851.4775" fill="#FFFBEB" style="stroke:#F59E0B;stroke-width:0.5;"/><text fill="#92400E" font-family="sans-serif" font-size="13" lengthAdjust="spacing" textLength="115.9591" x="242.7603" y="1868.5444">&#26234;&#33021;&#20307;"&#25968;&#23383;&#21103;&#24215;&#38271;"</text><text fill="#92400E" font-family="sans-serif" font-size="13" lengthAdjust="spacing" textLength="104.0001" x="242.7603" y="1883.6772">&#33258;&#21160;&#29983;&#25104;&#27963;&#21160;&#26041;&#26696;</text><rect fill="#E0F2FE" height="33.9688" rx="12.5" ry="12.5" style="stroke:#0284C7;stroke-width:0.5;" width="80.0005" x="136.7598" y="1854.626"/><text fill="#0C4A6E" font-family="sans-serif" font-size="12" lengthAdjust="spacing" textLength="60.0005" x="146.7598" y="1875.7646">&#20915;&#31574;&#23618;&#21028;&#23450;</text><path d="M236.7603,1916.1611 L236.7603,1924.7275 L216.7603,1928.7275 L236.7603,1932.7275 L236.7603,1941.2939 A0,0 0 0 0 236.7603,1941.2939 L348.7604,1941.2939 A0,0 0 0 0 348.7604,1941.2939 L348.7604,1926.1611 L338.7604,1916.1611 L236.7603,1916.1611 A0,0 0 0 0 236.7603,1916.1611" fill="#FFFBEB" style="stroke:#F59E0B;stroke-width:0.5;"/><path d="M338.7604,1916.1611 L338.7604,1926.1611 L348.7604,1926.1611 L338.7604,1916.1611" fill="#FFFBEB" style="stroke:#F59E0B;stroke-width:0.5;"/><text fill="#92400E" font-family="sans-serif" font-size="13" lengthAdjust="spacing" textLength="91.0001" x="242.7603" y="1933.228">&#22810;&#28192;&#36947;&#26234;&#33021;&#35302;&#36798;</text><rect fill="#E0F2FE" height="33.9688" rx="12.5" ry="12.5" style="stroke:#0284C7;stroke-width:0.5;" width="80.0005" x="136.7598" y="1911.7432"/><text fill="#0C4A6E" font-family="sans-serif" font-size="12" lengthAdjust="spacing" textLength="60.0005" x="146.7598" y="1932.8818">&#35302;&#36798;&#23618;&#25512;&#36865;</text><path d="M15,1970.1299 L15,1995.2627 A0,0 0 0 0 15,1995.2627 L122.7599,1995.2627 A0,0 0 0 0 122.7599,1995.2627 L122.7599,1988.1299 L142.7599,1982.6963 L122.7599,1980.1299 L122.7599,1980.1299 L112.7599,1970.1299 L15,1970.1299 A0,0 0 0 0 15,1970.1299" fill="#FFFBEB" style="stroke:#F59E0B;stroke-width:0.5;"/><path d="M112.7599,1970.1299 L112.7599,1980.1299 L122.7599,1980.1299 L112.7599,1970.1299" fill="#FFFBEB" style="stroke:#F59E0B;stroke-width:0.5;"/><text fill="#92400E" font-family="sans-serif" font-size="13" lengthAdjust="spacing" textLength="86.7599" x="21" y="1987.1968">&#28857;&#20987;/&#39046;&#21462;/&#21672;&#35810;</text><rect fill="#E0F2FE" height="33.9688" rx="12.5" ry="12.5" style="stroke:#0284C7;stroke-width:0.5;" width="68.0004" x="142.7599" y="1965.7119"/><text fill="#0C4A6E" font-family="sans-serif" font-size="12" lengthAdjust="spacing" textLength="48.0004" x="152.7599" y="1986.8506">&#20250;&#21592;&#21709;&#24212;</text><path d="M230.7602,2024.0986 L230.7602,2032.665 L210.7602,2036.665 L230.7602,2040.665 L230.7602,2049.2314 A0,0 0 0 0 230.7602,2049.2314 L348.9175,2049.2314 A0,0 0 0 0 348.9175,2049.2314 L348.9175,2034.0986 L338.9175,2024.0986 L230.7602,2024.0986 A0,0 0 0 0 230.7602,2024.0986" fill="#FFFBEB" style="stroke:#F59E0B;stroke-width:0.5;"/><path d="M338.9175,2024.0986 L338.9175,2034.0986 L348.9175,2034.0986 L338.9175,2024.0986" fill="#FFFBEB" style="stroke:#F59E0B;stroke-width:0.5;"/><text fill="#92400E" font-family="sans-serif" font-size="13" lengthAdjust="spacing" textLength="97.1573" x="236.7602" y="2041.1655">&#24215;&#21592;&#25215;&#25509; + &#26680;&#38144;</text><rect fill="#E0F2FE" height="33.9688" rx="12.5" ry="12.5" style="stroke:#0284C7;stroke-width:0.5;" width="68.0004" x="142.7599" y="2019.6807"/><text fill="#0C4A6E" font-family="sans-serif" font-size="12" lengthAdjust="spacing" textLength="48.0004" x="152.7599" y="2040.8193">&#38376;&#24215;&#23653;&#32422;</text><rect fill="#E0F2FE" height="33.9688" rx="12.5" ry="12.5" style="stroke:#0284C7;stroke-width:0.5;" width="68.0004" x="142.7599" y="2073.6494"/><text fill="#0C4A6E" font-family="sans-serif" font-size="12" lengthAdjust="spacing" textLength="48.0004" x="152.7599" y="2094.7881">&#25968;&#25454;&#37319;&#38598;</text><path d="M230.7602,2132.0361 L230.7602,2140.6025 L210.7602,2144.6025 L230.7602,2148.6025 L230.7602,2157.1689 A0,0 0 0 0 230.7602,2157.1689 L379.6085,2157.1689 A0,0 0 0 0 379.6085,2157.1689 L379.6085,2142.0361 L369.6085,2132.0361 L230.7602,2132.0361 A0,0 0 0 0 230.7602,2132.0361" fill="#FFFBEB" style="stroke:#F59E0B;stroke-width:0.5;"/><path d="M369.6085,2132.0361 L369.6085,2142.0361 L379.6085,2142.0361 L369.6085,2132.0361" fill="#FFFBEB" style="stroke:#F59E0B;stroke-width:0.5;"/><text fill="#92400E" font-family="sans-serif" font-size="13" lengthAdjust="spacing" textLength="127.8483" x="236.7602" y="2149.103">&#36716;&#21270;&#20998;&#26512; -&gt; &#35268;&#21017;&#36845;&#20195;</text><rect fill="#E0F2FE" height="33.9688" rx="12.5" ry="12.5" style="stroke:#0284C7;stroke-width:0.5;" width="68.0004" x="142.7599" y="2127.6182"/><text fill="#0C4A6E" font-family="sans-serif" font-size="12" lengthAdjust="spacing" textLength="48.0004" x="152.7599" y="2148.7568">&#22797;&#30424;&#20248;&#21270;</text><rect fill="#E0F2FE" height="33.9688" rx="12.5" ry="12.5" style="stroke:#0284C7;stroke-width:0.5;" width="68.0004" x="142.7599" y="2181.5869"/><text fill="#0C4A6E" font-family="sans-serif" font-size="12" lengthAdjust="spacing" textLength="48.0004" x="152.7599" y="2202.7256">&#24418;&#25104;&#38381;&#29615;</text><ellipse cx="176.76" cy="2268.3545" fill="none" rx="10" ry="10" style="stroke:#222222;stroke-width:1.5;"/><line style="stroke:#222222;stroke-width:2.5;" x1="170.5729" x2="182.9472" y1="2262.1673" y2="2274.5417"/><line style="stroke:#222222;stroke-width:2.5;" x1="182.9472" x2="170.5729" y1="2262.1673" y2="2274.5417"/><line style="stroke:#475569;stroke-width:1;" x1="176.76" x2="176.76" y1="156.8281" y2="176.8281"/><polygon fill="#475569" points="172.76,166.8281,176.76,176.8281,180.76,166.8281,176.76,170.8281" style="stroke:#475569;stroke-width:1;"/><line style="stroke:#475569;stroke-width:1;" x1="176.76" x2="176.76" y1="210.7969" y2="230.7969"/><polygon fill="#475569" points="172.76,220.7969,176.76,230.7969,180.76,220.7969,176.76,224.7969" style="stroke:#475569;stroke-width:1;"/><line style="stroke:#475569;stroke-width:1;" x1="176.76" x2="176.76" y1="264.7656" y2="284.7656"/><polygon fill="#475569" points="172.76,274.7656,176.76,284.7656,180.76,274.7656,176.76,278.7656" style="stroke:#475569;stroke-width:1;"/><line style="stroke:#475569;stroke-width:1;" x1="176.76" x2="176.76" y1="411.8018" y2="431.8018"/><polygon fill="#475569" points="172.76,421.8018,176.76,431.8018,180.76,421.8018,176.76,425.8018" style="stroke:#475569;stroke-width:1;"/><line style="stroke:#475569;stroke-width:1;" x1="176.76" x2="176.76" y1="465.7705" y2="485.7705"/><polygon fill="#475569" points="172.76,475.7705,176.76,485.7705,180.76,475.7705,176.76,479.7705" style="stroke:#475569;stroke-width:1;"/><line style="stroke:#475569;stroke-width:1;" x1="176.76" x2="176.76" y1="519.7393" y2="539.7393"/><polygon fill="#475569" points="172.76,529.7393,176.76,539.7393,180.76,529.7393,176.76,533.7393" style="stroke:#475569;stroke-width:1;"/><line style="stroke:#475569;stroke-width:1;" x1="176.76" x2="176.76" y1="318.7344" y2="377.833"/><polygon fill="#475569" points="172.76,367.833,176.76,377.833,180.76,367.833,176.76,371.833" style="stroke:#475569;stroke-width:1;"/><line style="stroke:#475569;stroke-width:1;" x1="176.76" x2="176.76" y1="666.7754" y2="686.7754"/><polygon fill="#475569" points="172.76,676.7754,176.76,686.7754,180.76,676.7754,176.76,680.7754" style="stroke:#475569;stroke-width:1;"/><line style="stroke:#475569;stroke-width:1;" x1="176.76" x2="176.76" y1="720.7441" y2="740.7441"/><polygon fill="#475569" points="172.76,730.7441,176.76,740.7441,180.76,730.7441,176.76,734.7441" style="stroke:#475569;stroke-width:1;"/><line style="stroke:#475569;stroke-width:1;" x1="176.76" x2="176.76" y1="774.7129" y2="794.7129"/><polygon fill="#475569" points="172.76,784.7129,176.76,794.7129,180.76,784.7129,176.76,788.7129" style="stroke:#475569;stroke-width:1;"/><line style="stroke:#475569;stroke-width:1;" x1="176.76" x2="176.76" y1="573.708" y2="632.8066"/><polygon fill="#475569" points="172.76,622.8066,176.76,632.8066,180.76,622.8066,176.76,626.8066" style="stroke:#475569;stroke-width:1;"/><line style="stroke:#475569;stroke-width:1;" x1="176.76" x2="176.76" y1="921.749" y2="941.749"/><polygon fill="#475569" points="172.76,931.749,176.76,941.749,180.76,931.749,176.76,935.749" style="stroke:#475569;stroke-width:1;"/><line style="stroke:#475569;stroke-width:1;" x1="176.76" x2="176.76" y1="975.7178" y2="995.7178"/><polygon fill="#475569" points="172.76,985.7178,176.76,995.7178,180.76,985.7178,176.76,989.7178" style="stroke:#475569;stroke-width:1;"/><line style="stroke:#475569;stroke-width:1;" x1="176.76" x2="176.76" y1="1029.6865" y2="1049.6865"/><polygon fill="#475569" points="172.76,1039.6865,176.76,1049.6865,180.76,1039.6865,176.76,1043.6865" style="stroke:#475569;stroke-width:1;"/><line style="stroke:#475569;stroke-width:1;" x1="176.76" x2="176.76" y1="828.6816" y2="887.7803"/><polygon fill="#475569" points="172.76,877.7803,176.76,887.7803,180.76,877.7803,176.76,881.7803" style="stroke:#475569;stroke-width:1;"/><line style="stroke:#475569;stroke-width:1;" x1="176.76" x2="176.76" y1="1176.7227" y2="1196.7227"/><polygon fill="#475569" points="172.76,1186.7227,176.76,1196.7227,180.76,1186.7227,176.76,1190.7227" style="stroke:#475569;stroke-width:1;"/><line style="stroke:#475569;stroke-width:1;" x1="176.76" x2="176.76" y1="1230.6914" y2="1250.6914"/><polygon fill="#475569" points="172.76,1240.6914,176.76,1250.6914,180.76,1240.6914,176.76,1244.6914" style="stroke:#475569;stroke-width:1;"/><line style="stroke:#475569;stroke-width:1;" x1="176.76" x2="176.76" y1="1284.6602" y2="1304.6602"/><polygon fill="#475569" points="172.76,1294.6602,176.76,1304.6602,180.76,1294.6602,176.76,1298.6602" style="stroke:#475569;stroke-width:1;"/><line style="stroke:#475569;stroke-width:1;" x1="176.76" x2="176.76" y1="1083.6553" y2="1142.7539"/><polygon fill="#475569" points="172.76,1132.7539,176.76,1142.7539,180.76,1132.7539,176.76,1136.7539" style="stroke:#475569;stroke-width:1;"/><line style="stroke:#475569;stroke-width:1;" x1="176.76" x2="176.76" y1="1431.6963" y2="1451.6963"/><polygon fill="#475569" points="172.76,1441.6963,176.76,1451.6963,180.76,1441.6963,176.76,1445.6963" style="stroke:#475569;stroke-width:1;"/><line style="stroke:#475569;stroke-width:1;" x1="176.76" x2="176.76" y1="1485.665" y2="1505.665"/><polygon fill="#475569" points="172.76,1495.665,176.76,1505.665,180.76,1495.665,176.76,1499.665" style="stroke:#475569;stroke-width:1;"/><line style="stroke:#475569;stroke-width:1;" x1="176.76" x2="176.76" y1="1539.6338" y2="1559.6338"/><polygon fill="#475569" points="172.76,1549.6338,176.76,1559.6338,180.76,1549.6338,176.76,1553.6338" style="stroke:#475569;stroke-width:1;"/><line style="stroke:#475569;stroke-width:1;" x1="176.76" x2="176.76" y1="1338.6289" y2="1397.7275"/><polygon fill="#475569" points="172.76,1387.7275,176.76,1397.7275,180.76,1387.7275,176.76,1391.7275" style="stroke:#475569;stroke-width:1;"/><line style="stroke:#475569;stroke-width:1;" x1="176.76" x2="176.76" y1="1593.6025" y2="1625.6025"/><polygon fill="#475569" points="172.76,1615.6025,176.76,1625.6025,180.76,1615.6025,176.76,1619.6025" style="stroke:#475569;stroke-width:1;"/><line style="stroke:#475569;stroke-width:1;" x1="176.76" x2="176.76" y1="1645.6025" y2="1665.6025"/><polygon fill="#475569" points="172.76,1655.6025,176.76,1665.6025,180.76,1655.6025,176.76,1659.6025" style="stroke:#475569;stroke-width:1;"/><line style="stroke:#475569;stroke-width:1;" x1="176.76" x2="176.76" y1="1699.5713" y2="1719.5713"/><polygon fill="#475569" points="172.76,1709.5713,176.76,1719.5713,180.76,1709.5713,176.76,1713.5713" style="stroke:#475569;stroke-width:1;"/><line style="stroke:#475569;stroke-width:1;" x1="176.76" x2="176.76" y1="1753.54" y2="1797.5088"/><polygon fill="#475569" points="172.76,1787.5088,176.76,1797.5088,180.76,1787.5088,176.76,1791.5088" style="stroke:#475569;stroke-width:1;"/><text fill="#000000" font-family="sans-serif" font-size="12" lengthAdjust="spacing" textLength="108.1296" x="180.76" y="1776.0088">&#23395;&#33410;/&#22825;&#27668;/&#33286;&#24773;/&#20301;&#32622;</text><line style="stroke:#475569;stroke-width:1;" x1="176.76" x2="176.76" y1="1831.4775" y2="1854.626"/><polygon fill="#475569" points="172.76,1844.626,176.76,1854.626,180.76,1844.626,176.76,1848.626" style="stroke:#475569;stroke-width:1;"/><line style="stroke:#475569;stroke-width:1;" x1="176.76" x2="176.76" y1="1888.5947" y2="1911.7432"/><polygon fill="#475569" points="172.76,1901.7432,176.76,1911.7432,180.76,1901.7432,176.76,1905.7432" style="stroke:#475569;stroke-width:1;"/><line style="stroke:#475569;stroke-width:1;" x1="176.76" x2="176.76" y1="1945.7119" y2="1965.7119"/><polygon fill="#475569" points="172.76,1955.7119,176.76,1965.7119,180.76,1955.7119,176.76,1959.7119" style="stroke:#475569;stroke-width:1;"/><line style="stroke:#475569;stroke-width:1;" x1="176.76" x2="176.76" y1="1999.6807" y2="2019.6807"/><polygon fill="#475569" points="172.76,2009.6807,176.76,2019.6807,180.76,2009.6807,176.76,2013.6807" style="stroke:#475569;stroke-width:1;"/><line style="stroke:#475569;stroke-width:1;" x1="176.76" x2="176.76" y1="2053.6494" y2="2073.6494"/><polygon fill="#475569" points="172.76,2063.6494,176.76,2073.6494,180.76,2063.6494,176.76,2067.6494" style="stroke:#475569;stroke-width:1;"/><line style="stroke:#475569;stroke-width:1;" x1="176.76" x2="176.76" y1="2107.6182" y2="2127.6182"/><polygon fill="#475569" points="172.76,2117.6182,176.76,2127.6182,180.76,2117.6182,176.76,2121.6182" style="stroke:#475569;stroke-width:1;"/><line style="stroke:#475569;stroke-width:1;" x1="176.76" x2="176.76" y1="2161.5869" y2="2181.5869"/><polygon fill="#475569" points="172.76,2171.5869,176.76,2181.5869,180.76,2171.5869,176.76,2175.5869" style="stroke:#475569;stroke-width:1;"/><line style="stroke:#475569;stroke-width:1;" x1="176.76" x2="176.76" y1="2215.5557" y2="2258.3545"/><polygon fill="#475569" points="172.76,2248.3545,176.76,2258.3545,180.76,2248.3545,176.76,2252.3545" style="stroke:#475569;stroke-width:1;"/><text fill="#000000" font-family="sans-serif" font-size="12" lengthAdjust="spacing" textLength="72.0005" x="180.76" y="2238.0244">&#25345;&#32493;&#23398;&#20064;&#20248;&#21270;</text><?plantuml-src TLJRRk9M57ttLrZfIwiHuX829AH8RQK-ZzGlCCPEq6HWPDn6RLK9XmIS2v2KMy940J8a8QCQc4uwGxX-J3dds4_zXPxZWnb3PjwiVLbhhxtNSU95DFQAaxYNR9ZZNsn9yPzZaH_YEt69_KeCY9p8CubvHMARYyHtex4jLkHs4e8jmqbIV7VMvlMlhVdMbvC_ncFoJz7V1DRjiQMskLXaLuhAiX2ROThxU3dwIrJ-bVsTOTdlbwSJNA9754WcBaK4QHPrUG9Ute-ZXC-AyLxE9p1_sB4JCYV9dmVsUFYrjIV0RX-twkKMGOHOvFCGOi3lzhkN8IAyn-VnBKB4uhBm1GnH30lXPGnnRLrmXHVrhNkyBfUfJuxAEsJopN1eCu6NlU4EXFHi1weJUD7NKwFfg33jLS5HmwXeADVPT9AYqAOp729DjCCJWlirLBjnm8ShqAavGFezqieE_UvM7uyTuDqDwjywG3EBNf_F-Xco1qhDO5NuAngFiIiK1hpROxy6pRAHQaqd3P3_-CsATJjJzmRGtkX7Uo1_3axAGJFGl8VT8dghu9WPqDKqJ1sWb8Rs7cd5PHUTfgUZB1grWqItdTMSscIbci79et6G9QoHiC1PhDDX5PoTe-80fF80ur-TciYesCBx0cSjU5dJsmtKhj09SAoWm7e6QMEAH-SuUAyhHPZ3FQTMzU8qT7csQV05o2WYB_Z5LJeABa2b6_rk7wWNO5Y2XHm5LtlWv43Fl0L7BLIiGPLE22iVu6KVg4tGhj90hsue1IDv28_lb-dfqMOdgD9AaruGLtc_jGc5U6BSnkUXEwXf-DD8Ll7rw2JTF6eTWtuUApMIYXdxxlbp-465IkU9OjCW9gLHQO5-nTmyJmJRDm_KBivH-7u51-3X1EOe7wptZ68IwqTrIgOtRlI7EzHew-tc4pxJYNJ3fIxCjgcrJPMhGa0KAQi--WlxYrROxWtw1Q2TOoKuYGRavC5F9u4b5LvTwftzwR1Bvp1lf4-qwU3DT4WDIrup-PSmp8RTvNZp87yMPCptBKMtjkKDTZe-_czODIwoi7TlNE_hsks_IGN-e-27GYsECUQF1cPBUkvZa764MFf2dFHTE6cfqt8_Rh4SR-dwn8c7jXkTVSRQdOopprYxuzblMVJt66JIrEFckoPWH9jbPCjv2oHpRw_W3GEj0Wux-Af6QRA2atOBmuS1_eRbHzXGxV1pereMi-zjRbrAGsjnqyn9XIpe5sSTEuA86_1_0cG6JkCw3V9b9_YpfNUkSJtr8pNe4eFDWdWdr81ajTHHcOpnEXqqBqpCPftUZa3zHI_0uflPhK8QHzTOFRKc1i85y4H10mrejzF7kWL8DiBy3m00?></g></svg>